{"title":"Glastonbury.2015.Day1.Highlights.PDTVx264-JIVE","uid":12065879,"size":202907871,"categoryP":"video","categoryS":"tv_shows","magnet":"?xt=urn:btih:ac35a4c773147594a71e7631433389436b582ce4&amp;dn=Glastonbury.2015.Day1.Highlights.PDTVx264-JIVE&amp;tr=udp%3A%2F%2Ftracker.openbittorrent.com%3A80&amp;tr=udp%3A%2F%2Fopen.demonii.com%3A1337&amp;tr=udp%3A%2F%2Ftracker.coppersurfer.tk%3A6969&amp;tr=udp%3A%2F%2Fexodus.desync.com%3A6969","seeders":1,"leechers":0,"uploader":"toots2boots","files":1,"time":1435391630,"description":"The Glastonbury Festival, which takes place this weekend, is unlike any other festival in the world.\nWhere else could you find the biggest pop, rock and rap stars rubbing shoulders with Brazilian bossa nova legends, Nobel peace prize winners, film directors, politicians, punk ballet dancers, Russian dissidents and a giant fire-breathing rave spider?\nThey are some of the 26 essential things to look and listen out for this year.\nRain has fallen on the Glastonbury Festival as fans enjoyed the first day of music on the main stages.\nA heavy shower on Friday afternoon brought out the wellies, ponchos and umbrellas and created puddles on site.\nFriday's acts include Florence and the Machine, Motorhead, Mark Ronson and an unconfirmed band, rumoured to be The Libertines, on the Pyramid Stage.\nHowever, Professor Stephen Hawking is unlikely to attend the event for an appearance in the Kidz Field.\nA spokesperson for the physicist told The Telegraph he had pulled out &quot;for personal reasons&quot;\n\nGeneral\nComplete name                            : M:PostsGlastonbury.2015.Day1.Highlights.PDTVx264-JIVEGlastonbury.2015.Day1.Highlights.PDTVx264-JIVE.mp4\nFormat                                   : MPEG-4\nFormat profile                           : Base Media\nCodec ID                                 : isom\nFile size                                : 194 MiB\nDuration                                 : 29mn 20s\nOverall bit rate                         : 922 Kbps\nWriting application                      : Lavf56.36.100\n\nVideo\nID                                       : 1\nFormat                                   : AVC\nFormat/Info                              : Advanced Video Codec\nFormat profile                           : &lt;a class=&quot;__cf_email__&quot; href=&quot;/cdn-cgi/l/email-protection&quot; data-cfemail=&quot;387559515678740b1608&quot;&gt;[email&amp;#160;protected]&lt;/a&gt;&lt;script data-cfhash='f9e31' type=&quot;text/javascript&quot;&gt;\n/* &lt;![CDATA[ */!function(){try{var t=&quot;currentScript&quot;in document?document.currentScript:function(){for(var t=document.getElementsByTagName(&quot;script&quot;),e=t.length;e--;)if(t[e].getAttribute(&quot;data-cfhash&quot;))return t[e]}();if(t&amp;&amp;t.previousSibling){var e,r,n,i,c=t.previousSibling,a=c.getAttribute(&quot;data-cfemail&quot;);if(a){for(e=&quot;&quot;,r=parseInt(a.substr(0,2),16),n=2;a.length-n;n+=2)i=parseInt(a.substr(n,2),16)^r,e+=String.fromCharCode(i);e=document.createTextNode(e),c.parentNode.replaceChild(e,c)}t.parentNode.removeChild(t);}}catch(u){}}()/* ]]&gt; */&lt;/script&gt;\nFormat settings, CABAC                   : Yes\nFormat settings, ReFrames                : 2 frames\nCodec ID                                 : avc1\nCodec ID/Info                            : Advanced Video Coding\nDuration                                 : 29mn 19s\nBit rate                                 : 821 Kbps\nWidth                                    : 704 pixels\nHeight                                   : 396 pixels\nDisplay aspect ratio                     : 16:9\nFrame rate mode                          : Variable\nFrame rate                               : 25.000 fps\nMinimum frame rate                       : 12.500 fps\nMaximum frame rate                       : 16 000.000 fps\nStandard                                 : Component\nColor space                              : YUV\nChroma subsampling                       : 4:2:0\nBit depth                                : 8 bits\nScan type                                : Progressive\nBits/(Pixel*Frame)                       : 0.118\nStream size                              : 172 MiB (89%)\nColor primaries                          : BT.709-5, BT.1361, IEC 61966-2-4, SMPTE RP177\nTransfer characteristics                 : BT.709-5, BT.1361\nMatrix coefficients                      : BT.709-5, BT.1361, IEC 61966-2-4 709, SMPTE RP177\n\nAudio\nID                                       : 2\nFormat                                   : AAC\nFormat/Info                              : Advanced Audio Codec\nFormat profile                           : LC\nCodec ID                                 : 40\nDuration                                 : 29mn 20s\nBit rate mode                            : Constant\nBit rate                                 : 93.5 Kbps\nChannel(s)                               : 2 channels\nChannel positions                        : Front: L R\nSampling rate                            : 48.0 KHz\nCompression mode                         : Lossy\nStream size                              : 19.6 MiB (10%)","torrent":{"xt":"urn:btih:ac35a4c773147594a71e7631433389436b582ce4","amp;dn":"Glastonbury.2015.Day1.Highlights.PDTVx264-JIVE","amp;tr":["udp%3A%2F%2Ftracker.openbittorrent.com%3A80","udp%3A%2F%2Fopen.demonii.com%3A1337","udp%3A%2F%2Ftracker.coppersurfer.tk%3A6969","udp%3A%2F%2Fexodus.desync.com%3A6969"],"infoHash":"ac35a4c773147594a71e7631433389436b582ce4","infoHashBuffer":{"type":"Buffer","data":[172,53,164,199,115,20,117,148,167,30,118,49,67,51,137,67,107,88,44,228]},"announce":[],"urlList":[]}}